<svg xmlns="http://www.w3.org/2000/svg" version="1.1" xmlns:xlink="http://www.w3.org/1999/xlink" xmlns:svgjs="http://svgjs.dev/svgjs" width="100%" height="100%" viewBox="0 0 1000 600"><rect width="1000" height="600" x="0" y="0" fill="#cc313d"/><g><circle r="166.66666666666666" cx="329.29494730631507" cy="351.5171726925919" fill="#f7c5cc" transform="matrix(0.7686239304755635,0,0,0.7686239304755635,0,29.815473457668645)"/><path d="M265.45646901616783 290.85306890899136L265.45646901616783 290.85306890899136Q233.85904625429447 290.85306890899136 233.85904625429447 314.668163472107L233.85904625429447 314.668163472107Q233.85904625429447 327.9215269083372 241.14400761328193 332.8659384331118Q248.39971209934174 337.8396068308141 270.63493552436375 342.7840183555887Q292.840902076458 347.72842988036336 302.1153307945264 355.6277855708317Q311.38975951259476 363.5271412613 311.38975951259476 381.63714560352184L311.38975951259476 381.63714560352184Q311.38975951259476 426.51718867455304 264.84207468468696 426.51718867455304L264.84207468468696 426.51718867455304Q249.45295952473754 426.51718867455304 226.28151616603043 422.9185933044508L226.28151616603043 422.9185933044508L218.70398607776633 421.86534587905504L220.371627834643 408.4071843323312Q249.04336330375028 412.1813209399994 263.9936253697848 412.1813209399994L263.9936253697848 412.1813209399994Q295.15219503774324 412.1813209399994 295.15219503774324 382.8951911394112L295.15219503774324 382.8951911394112Q295.15219503774324 371.10467134956406 288.30608677267065 365.95546171429584Q281.45997850759807 360.7769952060999 262.7355798338954 357.20765670892536L262.7355798338954 357.20765670892536Q238.0720359558776 351.9414195819465 227.74435981241345 343.6324676704909Q217.44594054187695 335.2942588861076 217.44594054187695 315.7214108975028L217.44594054187695 315.7214108975028Q217.44594054187695 276.51720117443773 264.40322159077203 276.51720117443773L264.40322159077203 276.51720117443773Q279.79233675072146 276.51720117443773 301.26688147962426 279.67694345062506L301.26688147962426 279.67694345062506L308.4348153469011 280.73019087602086L306.97197170051805 294.4224074061659Q277.68584189992987 290.85306890899136 265.45646901616783 290.85306890899136ZM396.9075990801464 368.7933783882789L355.62615137921745 368.7933783882789L355.62615137921745 424.6154919342551L339.38858690436587 424.6154919342551L339.38858690436587 278.85775100865055L393.33826058297177 278.85775100865055Q416.50970394167894 278.85775100865055 428.1831962398154 289.595023373102Q439.8859454108796 300.33229573755335 439.8859454108796 323.09414287527323L439.8859454108796 323.09414287527323Q439.8859454108796 356.79806048793813 413.1159066820703 365.42883800159797L413.1159066820703 365.42883800159797L441.14399094676907 424.6154919342551L423.2387847150408 424.6154919342551L396.9075990801464 368.7933783882789ZM355.62615137921745 354.45751065372525L393.5430586934654 354.45751065372525Q423.2387847150408 354.45751065372525 423.2387847150408 323.82556469846475Q423.2387847150408 293.16436187027654 393.33826058297177 293.16436187027654L393.33826058297177 293.16436187027654L355.62615137921745 293.16436187027654L355.62615137921745 354.45751065372525Z " fill="#cc313d" transform="matrix(0.7686239304755635,0,0,0.7686239304755635,0,29.815473457668645)"/><path d="M616.2100750631905 287.5399960258876L616.2100750631905 287.5399960258876Q591.9149369823788 287.5399960258876 591.9149369823788 305.8513315793882L591.9149369823788 305.8513315793882Q591.9149369823788 316.0417922743953 597.5163160398993 319.84353147407785Q603.0951995991968 323.6677661719834 620.1917782486568 327.46950537166595Q637.2658613998938 331.2712445713485 644.3969343365766 337.3450290915514Q651.5280072732592 343.4188136117543 651.5280072732592 357.34352701177505L651.5280072732592 357.34352701177505Q651.5280072732592 391.85162128581675 615.7376696005081 391.85162128581675L615.7376696005081 391.85162128581675Q603.9050375352238 391.85162128581675 586.0886029426285 389.08467500439093L586.0886029426285 389.08467500439093L580.2622689028784 388.27483706836387L581.5445123015879 377.92690788579597Q603.5901005601022 380.8288271565596 615.0853001520418 380.8288271565596L615.0853001520418 380.8288271565596Q639.0430057595088 380.8288271565596 639.0430057595088 358.3108334353629L639.0430057595088 358.3108334353629Q639.0430057595088 349.2451476515045 633.7790591753329 345.2859399642611Q628.515112591157 341.30423677879475 614.1179937284539 338.559785995592L614.1179937284539 338.559785995592Q595.154288726487 334.5105963154567 587.2133778537773 328.1218748201322Q579.2949624792906 321.7106578265847 579.2949624792906 306.6611695154153L579.2949624792906 306.6611695154153Q579.2949624792906 276.51720189663047 615.4002371271633 276.51720189663047L615.4002371271633 276.51720189663047Q627.2328691924475 276.51720189663047 643.7445648881103 278.9467157047116L643.7445648881103 278.9467157047116L649.2559619527387 279.7565536407387L648.1311870415902 290.28444680909035Q625.6131933203935 287.5399960258876 616.2100750631905 287.5399960258876ZM683.1116867783144 390.3894139013234L670.9641177379085 390.3894139013234L670.9641177379085 309.40562029861803L683.1116867783144 309.40562029861803L683.1116867783144 390.3894139013234ZM683.1116867783144 291.0942847451174L670.9641177379085 291.0942847451174L670.9641177379085 277.01210285753587L683.1116867783144 277.01210285753587L683.1116867783144 291.0942847451174ZM721.6464752342683 390.3894139013234L698.8135445379501 309.40562029861803L711.7709515143829 309.40562029861803L730.7346565163496 379.8615207329717L736.7184590436607 379.8615207329717L756.3120379958707 309.40562029861803L768.7970395096213 309.40562029861803L745.9416133150798 390.3894139013234L721.6464752342683 390.3894139013234ZM840.2202463675628 333.8582268669905L840.2202463675628 333.8582268669905L840.2202463675628 375.31743009193104Q840.6926518302453 381.323728117465 849.6008691265429 382.4485030286137L849.6008691265429 382.4485030286137L849.1284636638604 392.0090897733775Q836.3285251749883 392.0090897733775 829.849821686772 385.5303862851611L829.849821686772 385.5303862851611Q815.2727388382848 392.0090897733775 800.6956559897978 392.0090897733775L800.6956559897978 392.0090897733775Q789.51539337298 392.0090897733775 783.6890593332298 385.6878547727219Q777.8627252934796 379.3666197720663 777.8627252934796 367.5564832050051Q777.8627252934796 355.7238511397209 783.8465278207907 350.14496758042344Q789.8528258463245 344.543588522903 802.6302688369738 343.2613451241935L802.6302688369738 343.2613451241935L828.072677327157 340.8318313161123L828.072677327157 333.8582268669905Q828.072677327157 325.6023790191591 824.4958931097042 322.04809029992924Q820.9416043904741 318.4713060824764 814.7778378773794 318.4713060824764L814.7778378773794 318.4713060824764Q801.8204309009466 318.4713060824764 787.8957175009259 320.09098195453055L787.8957175009259 320.09098195453055L782.8792213972026 320.58588291543595L782.3843204362972 311.3402331457938Q800.2007550288924 307.7859444265639 813.9679999413524 307.7859444265639Q827.7352448538124 307.7859444265639 833.988993359799 314.10717942721953Q840.2202463675628 320.42841442787517 840.2202463675628 333.8582268669905ZM790.325231309007 366.90411375653883L790.325231309007 366.90411375653883Q790.325231309007 381.79613358014745 802.6302688369738 381.79613358014745L802.6302688369738 381.79613358014745Q813.6530629662309 381.79613358014745 824.3384246221433 378.0843763733568L824.3384246221433 378.0843763733568L828.072677327157 376.77963747642434L828.072677327157 350.0549855875316L804.092476221467 352.3270309080519Q796.8039347972235 352.97940035651817 793.5645830531153 356.533689075748Q790.325231309007 360.1104732932008 790.325231309007 366.90411375653883ZM910.5186783143556 347.46800329188954L878.7550348235168 347.46800329188954L878.7550348235168 390.3894139013234L866.2925288079894 390.3894139013234L866.2925288079894 278.3168417544683L907.7517320329298 278.3168417544683Q925.568166625525 278.3168417544683 934.5663659147144 286.5726896022997Q943.5420697056811 294.8285374501311 943.5420697056811 312.3300350676046L943.5420697056811 312.3300350676046Q943.5420697056811 338.2448490204703 922.981184329883 344.88102099624757L922.981184329883 344.88102099624757L944.5318716274919 390.3894139013234L930.7646267150319 390.3894139013234L910.5186783143556 347.46800329188954ZM878.7550348235168 336.44520916263247L907.9092005204907 336.44520916263247Q930.7646267150319 336.44520916263247 930.7646267150319 312.89242252317894Q930.7646267150319 289.3171403855025 907.7517320329298 289.3171403855025L907.7517320329298 289.3171403855025L878.7550348235168 289.3171403855025L878.7550348235168 336.44520916263247ZM1021.1290430767174 333.8582268669905L1021.1290430767174 333.8582268669905L1021.1290430767174 375.31743009193104Q1021.6239440376228 381.323728117465 1030.5321613339204 382.4485030286137L1030.5321613339204 382.4485030286137L1030.037260373015 392.0090897733775Q1017.2373218841431 392.0090897733775 1010.7586183959265 385.5303862851611L1010.7586183959265 385.5303862851611Q996.1815355474396 392.0090897733775 981.6044526989526 392.0090897733775L981.6044526989526 392.0090897733775Q970.4466855803576 392.0090897733775 964.5978560423844 385.6878547727219Q958.7715220026344 379.3666197720663 958.7715220026344 367.5564832050051Q958.7715220026344 355.7238511397209 964.7778200281682 350.14496758042344Q970.7616225554793 344.543588522903 983.5615610443513 343.2613451241935L983.5615610443513 343.2613451241935L1008.9814740363115 340.8318313161123L1008.9814740363115 333.8582268669905Q1008.9814740363115 325.6023790191591 1005.4271853170817 322.04809029992924Q1001.8504010996289 318.4713060824764 995.7091300847571 318.4713060824764L995.7091300847571 318.4713060824764Q982.7517231083243 318.4713060824764 968.8270097083036 320.09098195453055L968.8270097083036 320.09098195453055L963.7880181063574 320.58588291543595L963.315612643675 311.3402331457938Q981.1320472362702 307.7859444265639 994.8992921487302 307.7859444265639Q1008.66653706119 307.7859444265639 1014.8977900689538 314.10717942721953Q1021.1290430767174 320.42841442787517 1021.1290430767174 333.8582268669905ZM971.2565235163847 366.90411375653883L971.2565235163847 366.90411375653883Q971.2565235163847 381.79613358014745 983.5615610443513 381.79613358014745L983.5615610443513 381.79613358014745Q994.5618596753854 381.79613358014745 1005.269716829521 378.0843763733568L1005.269716829521 378.0843763733568L1008.9814740363115 376.77963747642434L1008.9814740363115 350.0549855875316L985.0237684288445 352.3270309080519Q977.7352270046013 352.97940035651817 974.4958752604928 356.533689075748Q971.2565235163847 360.1104732932008 971.2565235163847 366.90411375653883ZM1102.2703051669837 333.8582268669905L1102.2703051669837 333.8582268669905L1102.2703051669837 375.31743009193104Q1102.765206127889 381.323728117465 1111.6734234241867 382.4485030286137L1111.6734234241867 382.4485030286137L1111.1785224632813 392.0090897733775Q1098.401079472632 392.0090897733775 1091.9223759844158 385.5303862851611L1091.9223759844158 385.5303862851611Q1077.3452931359288 392.0090897733775 1062.768210287442 392.0090897733775L1062.768210287442 392.0090897733775Q1051.5879476706239 392.0090897733775 1045.7616136308736 385.6878547727219Q1039.9127840929004 379.3666197720663 1039.9127840929004 367.5564832050051Q1039.9127840929004 355.7238511397209 1045.9190821184345 350.14496758042344Q1051.9028846457454 344.543588522903 1064.7028231346176 343.2613451241935L1064.7028231346176 343.2613451241935L1090.1227361265778 340.8318313161123L1090.1227361265778 333.8582268669905Q1090.1227361265778 325.6023790191591 1086.568447407348 322.04809029992924Q1083.0141586881182 318.4713060824764 1076.8503921750232 318.4713060824764L1076.8503921750232 318.4713060824764Q1063.8929851985904 318.4713060824764 1049.9682717985697 320.09098195453055L1049.9682717985697 320.09098195453055L1044.9517756948467 320.58588291543595L1044.4568747339413 311.3402331457938Q1062.2733093265363 307.7859444265639 1076.0405542389963 307.7859444265639Q1089.8077991514563 307.7859444265639 1096.0390521592199 314.10717942721953Q1102.2703051669837 320.42841442787517 1102.2703051669837 333.8582268669905ZM1052.397785606651 366.90411375653883L1052.397785606651 366.90411375653883Q1052.397785606651 381.79613358014745 1064.7028231346176 381.79613358014745L1064.7028231346176 381.79613358014745Q1075.7256172638747 381.79613358014745 1086.410978919787 378.0843763733568L1086.410978919787 378.0843763733568L1090.1227361265778 376.77963747642434L1090.1227361265778 350.0549855875316L1066.1650305191108 352.3270309080519Q1058.8764890948673 352.97940035651817 1055.637137350759 356.533689075748Q1052.397785606651 360.1104732932008 1052.397785606651 366.90411375653883ZM1126.4079747602343 388.27483706836387L1126.4079747602343 388.27483706836387L1126.4079747602343 309.40562029861803L1138.3980753130793 309.40562029861803L1138.3980753130793 388.4548010541477Q1138.3980753130793 403.3468208777563 1133.0441467360115 410.7928307895606Q1127.712713657167 418.2388407013649 1111.5159549366258 426.5171840474192L1111.5159549366258 426.5171840474192L1106.6569273204634 417.1140657902162Q1119.2769018235517 409.82552436597274 1122.8536860410045 404.71904626935765Q1126.4079747602343 399.61256817274267 1126.4079747602343 388.27483706836387ZM1138.3980753130793 291.0942847451174L1126.4079747602343 291.0942847451174L1126.4079747602343 277.01210285753587L1138.3980753130793 277.01210285753587L1138.3980753130793 291.0942847451174Z " fill="#f7c5cc" transform="matrix(0.7686239304755635,0,0,0.7686239304755635,0,29.815473457668645)"/></g></svg>